<svg width="238" height="68" xmlns="http://www.w3.org/2000/svg" viewBox="0 0 238 68"><g fill="none"><path d="M51.526.047a4.966 4.966 0 0 0-4.675 3.272l-4.924 13.526-4.924 13.525a9.932 9.932 0 0 0 0 6.808l4.924 13.525 4.924 13.525a4.966 4.966 0 0 0 4.675 3.272h11.24a3.873 3.873 0 0 0 3.874-3.868V3.916A3.873 3.873 0 0 0 62.767.047h-11.24zm-35.948 0a4.966 4.966 0 0 1 4.676 3.272l4.923 13.526L30.08 30.37a9.932 9.932 0 0 1 0 6.808l-4.924 13.525-4.923 13.525a4.966 4.966 0 0 1-4.676 3.272H4.337a3.873 3.873 0 0 1-3.873-3.868V3.916A3.873 3.873 0 0 1 4.338.047h11.24z" fill="#2E47E5"/><path fill="#0F163B" d="M92.445 8.723h3.304v8.444h9.325V8.723h3.303V28.82h-3.303v-8.73h-9.325v8.729h-3.304zm33.241 17.394v2.702h-1.636c-2.005 0-2.696-.892-2.696-2.354a5.404 5.404 0 0 1-4.85 2.522c-3.214 0-5.457-1.583-5.457-4.306 0-3.013 2.185-4.707 6.285-4.707h3.694v-.887c0-1.635-1.176-2.638-3.213-2.638-1.837 0-3.072.86-3.304 2.153h-3.04c.317-2.87 2.782-4.65 6.486-4.65 3.905 0 6.143 1.869 6.143 5.341v5.88c0 .743.316.944.95.944h.638zm-4.649-3.847h-3.847c-1.921 0-2.982.717-2.982 2.21 0 1.236 1.056 2.112 2.723 2.112 2.586 0 4.08-1.52 4.106-3.79v-.532zm16.211-8.148h3.125v14.697h-2.729l-.343-1.869a5.467 5.467 0 0 1-4.533 2.037c-3.13 0-5.805-1.662-5.805-6.686v-8.18h3.098v7.837c0 2.871 1.15 4.333 3.42 4.333 2.353 0 3.789-1.779 3.789-4.824l-.022-7.345zm17.515 0h2.697v14.09c0 3.99-2.238 6.517-7.52 6.517-3.9 0-6.628-1.81-6.918-5.108h3.166c.375 1.636 1.805 2.58 3.99 2.58 2.696 0 4.221-1.287 4.221-4.1v-1.636c-.976 1.462-2.496 2.412-4.791 2.412-3.99 0-6.945-2.787-6.945-7.468 0-4.506 2.955-7.461 6.945-7.461a5.435 5.435 0 0 1 4.823 2.47l.332-2.296zm-.374 7.345c0-2.897-1.689-4.907-4.275-4.907-2.586 0-4.28 2.01-4.28 4.85 0 2.839 1.694 4.854 4.28 4.854 2.586 0 4.275-1.99 4.275-4.797zm5.377.033c0-4.54 2.897-7.552 7.235-7.552 4.248 0 7.087 2.696 7.177 7.002a8.317 8.317 0 0 1-.09 1.177h-11.082v.2c.085 2.502 1.663 4.138 4.1 4.138 1.9 0 3.278-.95 3.695-2.586h3.103c-.528 2.897-2.987 5.108-6.634 5.108-4.607 0-7.504-2.981-7.504-7.488zm11.214-1.637c-.259-2.185-1.778-3.42-3.931-3.42a3.8 3.8 0 0 0-3.906 3.42h7.837zm7.757 4.101c.117 1.525 1.436 2.638 3.694 2.638 1.921 0 3.167-.744 3.167-1.92 0-1.584-1.351-1.695-3.615-1.98-3.362-.406-6-1.124-6-4.163 0-2.787 2.496-4.591 6.026-4.565 3.615 0 6.17 1.662 6.37 4.68h-3.04c-.174-1.35-1.435-2.3-3.272-2.3-1.836 0-3.045.75-3.045 1.926 0 1.377 1.41 1.552 3.53 1.778 3.362.402 6.085 1.093 6.085 4.365 0 2.812-2.638 4.59-6.227 4.59-3.931 0-6.628-1.836-6.717-5.023l3.044-.026zm22.201-9.842h3.103v14.697h-2.728l-.343-1.869a5.467 5.467 0 0 1-4.533 2.037c-3.13 0-5.805-1.662-5.805-6.686v-8.18h3.098v7.837c0 2.871 1.15 4.333 3.414 4.333 2.36 0 3.79-1.779 3.79-4.824l.004-7.345zm19.716 6.512v8.185h-3.13v-7.916c0-2.781-1.176-4.275-3.498-4.275-2.47 0-3.937 1.81-3.937 4.792v7.388h-3.098V14.122h2.697l.343 1.92c.918-1.145 2.322-2.11 4.707-2.11 3.246.016 5.916 1.794 5.916 6.702zm13.805-11.911h3.098V28.82h-2.697l-.375-2.212a5.678 5.678 0 0 1-4.791 2.38c-3.99 0-6.95-2.812-6.95-7.52 0-4.533 2.96-7.52 6.95-7.52a5.647 5.647 0 0 1 4.75 2.212l.015-7.436zm0 12.803c0-2.93-1.694-4.94-4.274-4.94-2.581 0-4.28 2.01-4.28 4.881 0 2.871 1.694 4.908 4.28 4.908 2.585 0 4.3-2.01 4.3-4.85h-.026zM94.989 52.413c.169 2.348 2.01 3.931 4.823 3.931 2.38 0 4.1-1.055 4.1-2.987 0-2.11-2.11-2.58-5.277-3.166-3.33-.575-6.49-1.636-6.49-5.625 0-3.504 2.87-5.89 7.15-5.89 4.591 0 7.462 2.502 7.604 6.201h-3.298c-.258-2.037-1.868-3.414-4.306-3.414-2.27 0-3.847.976-3.847 2.87 0 2.07 2.063 2.497 5.224 3.045 3.33.602 6.57 1.663 6.544 5.626 0 3.615-3.013 6.11-7.435 6.11-4.993 0-8.006-2.754-8.122-6.77l3.33.069zm29.552-.808c0 4.539-2.929 7.52-6.945 7.52-2.269 0-3.847-.918-4.75-2.237v7.81h-3.081V44.26h2.702l.37 2.179a5.747 5.747 0 0 1 4.796-2.354c3.995 0 6.908 2.813 6.908 7.52zm-3.166 0c0-2.897-1.726-4.881-4.306-4.881-2.581 0-4.28 1.984-4.28 4.823 0 2.93 1.694 4.966 4.28 4.966 2.585 0 4.332-2.037 4.332-4.908h-.026zm19.377 4.65v2.701h-1.635c-2.011 0-2.697-.891-2.697-2.353a5.393 5.393 0 0 1-4.85 2.522c-3.219 0-5.456-1.583-5.456-4.3 0-3.02 2.184-4.713 6.285-4.713h3.694v-.887c0-1.636-1.177-2.638-3.214-2.638-1.837 0-3.071.865-3.304 2.153h-3.029c.317-2.87 2.781-4.65 6.486-4.65 3.905 0 6.143 1.869 6.143 5.341v5.884c0 .744.316.945.95.945l.627-.005zm-4.649-3.842h-3.847c-1.92 0-2.981.717-2.981 2.206 0 1.234 1.029 2.11 2.723 2.11 2.585 0 4.079-1.52 4.105-3.789v-.527zm14.544-8.153v2.897h-1.377c-2.755 0-3.647 2.153-3.647 4.422v7.388h-3.097V44.26h2.754l.343 2.21c.75-1.234 1.926-2.21 4.338-2.21h.686zm.66 7.377c0-4.538 2.902-7.552 7.235-7.552 4.248 0 7.087 2.697 7.177 7.003a8.317 8.317 0 0 1-.09 1.177h-11.082v.2c.084 2.502 1.662 4.138 4.106 4.138 1.894 0 3.271-.95 3.694-2.586h3.103c-.528 2.897-2.987 5.108-6.634 5.108-4.607-.02-7.51-2.981-7.51-7.488zm11.193-1.636c-.254-2.185-1.779-3.42-3.932-3.42a3.794 3.794 0 0 0-3.9 3.42h7.832zm20.333 1.604c0 4.507-2.93 7.52-6.945 7.52-2.296 0-3.879-.976-4.797-2.295l-.37 2.11h-2.701V38.862h3.103v7.578a5.662 5.662 0 0 1 4.749-2.354c4.032 0 6.96 2.787 6.96 7.52zm-3.167 0c0-2.87-1.725-4.881-4.306-4.881-2.58 0-4.28 2.01-4.28 4.855 0 2.844 1.694 4.934 4.28 4.934 2.586 0 4.317-2.005 4.317-4.908h-.01zm19.362 4.65v2.701h-1.636c-2.005 0-2.696-.891-2.696-2.353a5.393 5.393 0 0 1-4.85 2.522c-3.214 0-5.457-1.583-5.457-4.3 0-3.02 2.185-4.713 6.285-4.713h3.694v-.887c0-1.636-1.176-2.638-3.213-2.638-1.837 0-3.072.865-3.304 2.153h-3.04c.317-2.87 2.782-4.65 6.486-4.65 3.905 0 6.143 1.869 6.143 5.341v5.884c0 .744.316.945.95.945l.638-.005zm-4.649-3.842h-3.847c-1.921 0-2.982.717-2.982 2.206 0 1.234 1.056 2.11 2.723 2.11 2.586 0 4.08-1.52 4.106-3.789v-.527zm20.085-1.636v8.18h-3.13V51.04c0-2.781-1.176-4.275-3.498-4.275-2.47 0-3.937 1.81-3.937 4.792v7.388h-3.098V44.26h2.697l.343 1.92c.923-1.145 2.327-2.11 4.712-2.11 3.24.015 5.91 1.794 5.91 6.707zm2.807-11.916h3.098v12.517l6.66-7.118h3.646l-5.54 5.942 5.883 8.754h-3.694l-4.332-6.49-2.639 2.76v3.73h-3.098z"/></g></svg>
